<?xml version="1.0" encoding="iso-8859-1"?>
<!-- Generator: Adobe Illustrator 19.0.0, SVG Export Plug-In . SVG Version: 6.00 Build 0)  -->
<svg version="1.1" id="Capa_1" xmlns="http://www.w3.org/2000/svg" xmlns:xlink="http://www.w3.org/1999/xlink" x="0px" y="0px"
	 viewBox="0 0 469.982 469.982" style="enable-background:new 0 0 469.982 469.982;" xml:space="preserve">
<g>
	<path d="M467.785,2.196c-2.929-2.928-7.678-2.928-10.606,0l-23.51,23.51c-6.083-4.039-13.216-6.21-20.684-6.21
		c-10.017,0-19.434,3.901-26.516,10.983c-7.083,7.083-10.983,16.5-10.983,26.518c0,7.468,2.171,14.601,6.209,20.683l-26.014,26.014
		l-22.981-22.98c-5.194-5.194-12.1-8.055-19.445-8.055c-7.345,0-14.251,2.86-19.445,8.054c-10.722,10.723-10.722,28.169,0,38.892
		l22.981,22.981l-10.606,10.606l-22.982-22.982c-5.194-5.193-12.1-8.054-19.445-8.054c-7.345,0-14.251,2.86-19.445,8.054
		l-24.749,24.749c-5.194,5.194-8.055,12.101-8.055,19.446c0,7.345,2.86,14.251,8.055,19.445l22.981,22.98l-10.607,10.607
		l-22.98-22.98c-5.194-5.194-12.1-8.055-19.446-8.055c-7.345,0-14.251,2.86-19.445,8.054c-5.194,5.193-8.055,12.1-8.055,19.445
		s2.86,14.252,8.055,19.446l22.981,22.98l-10.714,10.714c-17.127-15.751-33.044-23.728-47.386-23.728
		c-8.988,0-17.016,3.277-23.216,9.479c-8.495,8.495-11.401,20.355-8.182,33.396c2.867,11.615,10.407,24.106,22.435,37.202
		l-10.718,10.718L92.282,321.13c-5.194-5.193-12.1-8.054-19.445-8.054c-7.346,0-14.251,2.86-19.445,8.054
		c-5.194,5.194-8.055,12.101-8.055,19.446s2.861,14.252,8.055,19.445l22.981,22.981l-22.981,22.982
		c-2.929,2.929-2.929,7.677,0,10.605c8.772,8.773,8.772,23.047,0,31.819c-8.774,8.774-23.047,8.773-31.82,0.001
		c-8.772-8.773-8.772-23.047,0-31.82c2.929-2.929,2.929-7.678,0-10.606c-2.929-2.928-7.678-2.929-10.606,0.001
		c-14.621,14.62-14.621,38.411,0,53.032c7.311,7.311,16.914,10.966,26.517,10.966s19.206-3.655,26.517-10.967
		c12.805-12.805,14.394-32.644,4.771-47.195l18.21-18.211l22.982,22.982c5.194,5.193,12.1,8.055,19.445,8.055
		c7.345-0.001,14.251-2.861,19.445-8.055c10.722-10.723,10.722-28.169,0-38.892l-22.981-22.981l10.715-10.715
		c17.125,15.749,33.042,23.726,47.385,23.728c8.99,0,17.017-3.277,23.217-9.478c8.495-8.495,11.401-20.355,8.182-33.396
		c-2.867-11.615-10.407-24.106-22.435-37.202l10.718-10.718l22.981,22.981c5.194,5.193,12.1,8.054,19.446,8.055
		c7.345-0.001,14.251-2.861,19.445-8.055c10.722-10.723,10.722-28.169,0-38.892l-22.981-22.98l10.607-10.607l22.98,22.98
		c5.193,5.194,12.099,8.055,19.445,8.056c7.347,0,14.252-2.861,19.446-8.055l24.749-24.748c10.722-10.723,10.722-28.169,0-38.892
		l-22.98-22.981l10.606-10.606l22.981,22.981c5.194,5.193,12.1,8.054,19.446,8.055c7.345,0,14.251-2.861,19.445-8.055
		c5.194-5.194,8.055-12.101,8.055-19.445c0-7.346-2.86-14.252-8.055-19.446l-22.981-22.98l26.014-26.014
		c6.082,4.039,13.216,6.21,20.684,6.21c10.017,0,19.434-3.901,26.517-10.983c12.806-12.806,14.395-32.644,4.77-47.197l23.514-23.514
		C470.714,9.874,470.714,5.126,467.785,2.196z M138.245,405.983c-2.361,2.361-5.5,3.662-8.839,3.662s-6.478-1.301-8.839-3.662
		l-56.569-56.569c-2.36-2.36-3.661-5.499-3.661-8.838s1.3-6.479,3.661-8.84c2.361-2.36,5.5-3.66,8.838-3.66s6.479,1.3,8.839,3.661
		l28.275,28.275c0.019,0.02,28.294,28.294,28.294,28.294C143.118,393.179,143.118,401.11,138.245,405.983z M196.581,347.647
		c-3.374,3.373-7.615,5.084-12.606,5.084c-11.394-0.002-26.377-8.713-42.194-24.53c-23.245-23.244-30.515-43.73-19.446-54.8
		c3.374-3.374,7.616-5.085,12.61-5.085c11.386,0,26.366,8.708,42.18,24.519c12.944,12.946,21.125,25.254,23.682,35.616
		C202.773,336.419,201.351,342.877,196.581,347.647z M254.918,289.31c-2.361,2.361-5.5,3.662-8.839,3.662s-6.478-1.301-8.839-3.662
		l-56.568-56.568c-2.361-2.36-3.661-5.5-3.661-8.839s1.3-6.478,3.661-8.838c2.361-2.361,5.5-3.661,8.839-3.661
		s6.478,1.3,8.839,3.661l28.282,28.282c0.005,0.005,28.287,28.287,28.287,28.287C259.791,276.506,259.791,284.437,254.918,289.31z
		 M332.825,206.225c0,3.339-1.3,6.479-3.661,8.839l-24.749,24.749c-2.361,2.36-5.5,3.661-8.838,3.661
		c-3.34,0-6.479-1.301-8.84-3.662l-56.568-56.568c-2.361-2.36-3.661-5.5-3.661-8.838c0-3.339,1.3-6.479,3.661-8.839l24.749-24.749
		c2.361-2.36,5.5-3.661,8.839-3.661c3.339,0,6.478,1.3,8.839,3.661l28.282,28.283c0.005,0.005,28.286,28.287,28.286,28.287
		C331.525,199.748,332.825,202.887,332.825,206.225z M382.322,156.728c0,3.338-1.3,6.478-3.661,8.838
		c-2.361,2.361-5.5,3.662-8.839,3.662s-6.478-1.301-8.839-3.662l-56.568-56.568c-4.874-4.873-4.874-12.804,0-17.677
		c2.361-2.361,5.5-3.661,8.839-3.661s6.478,1.3,8.839,3.661l28.282,28.282c0.005,0.005,28.287,28.287,28.287,28.287
		C381.022,150.25,382.322,153.389,382.322,156.728z M428.895,72.907c-4.25,4.25-9.9,6.591-15.91,6.591
		c-6.01,0-11.66-2.341-15.91-6.591c-4.25-4.249-6.59-9.899-6.59-15.909c0-6.011,2.34-11.661,6.59-15.911
		c4.25-4.249,9.9-6.59,15.91-6.59c6.01,0,11.66,2.341,15.91,6.591C437.668,49.86,437.668,64.134,428.895,72.907z"/>
	<path d="M304.415,211.529c2.924,2.924,7.682,2.924,10.607,0s2.924-7.682,0-10.607c-2.924-2.924-7.682-2.924-10.607,0
		C301.491,203.846,301.491,208.605,304.415,211.529z"/>
	<path d="M274.363,185.012c-2.924,2.924-2.924,7.682,0,10.606c2.924,2.924,7.682,2.924,10.607,0c2.924-2.924,2.924-7.682,0-10.606
		C282.045,182.088,277.287,182.088,274.363,185.012z"/>
	<path d="M132.272,283.338c-2.924,2.924-2.924,7.682,0,10.606c2.924,2.924,7.682,2.924,10.607,0c2.924-2.924,2.924-7.682,0-10.606
		S135.196,280.414,132.272,283.338z"/>
</g>
<g>
</g>
<g>
</g>
<g>
</g>
<g>
</g>
<g>
</g>
<g>
</g>
<g>
</g>
<g>
</g>
<g>
</g>
<g>
</g>
<g>
</g>
<g>
</g>
<g>
</g>
<g>
</g>
<g>
</g>
</svg>
