<svg id="icons" enable-background="new 0 0 64 64" height="512" viewBox="0 0 64 64" width="512" xmlns="http://www.w3.org/2000/svg"><path d="m41.34 36.146c.195.195.451.293.707.293s.512-.098.707-.293l9.899-9.899c.391-.391.391-1.023 0-1.414s-1.023-.391-1.414 0l-9.899 9.899c-.391.39-.391 1.023 0 1.414z"/><path d="m51.238 30.487-4.242 4.243c-.391.391-.391 1.023 0 1.414.195.195.451.293.707.293s.512-.098.707-.293l4.242-4.243c.391-.391.391-1.023 0-1.414s-1.023-.39-1.414 0z"/><path d="m45.583 24.832-4.243 4.243c-.391.391-.391 1.023 0 1.414.195.195.451.293.707.293s.512-.098.707-.293l4.243-4.243c.391-.391.391-1.023 0-1.414s-1.023-.391-1.414 0z"/><path d="m60.995 41.488h-1.021c.634-.838 1.024-1.869 1.024-2.999v-7.998c0-.014-.007-.025-.008-.039-.022-7.701-6.292-13.96-13.998-13.96h-29.99c-7.72 0-13.999 6.279-14 13.999v7.998c0 1.13.391 2.161 1.024 2.999h-1.021c-.001 0-.002 0-.003 0 0 0-.001 0-.002 0-1.657 0-3.005 1.348-3.005 3.005 0 1.634 1.312 2.961 2.937 2.998.025.002.048.015.073.015h57.98c.004 0 .007.002.01.002 1.659 0 3.01-1.351 3.01-3.01s-1.351-3.01-3.01-3.01zm-2.002-10.996c0 .011.006.019.006.029v7.968c0 1.651-1.341 2.993-2.99 2.999h-18.026c-1.649-.006-2.99-1.348-2.99-2.999v-7.997c0-6.617 5.383-12 12-12s12 5.383 12 12zm-26-.001v7.998c0 1.13.391 2.161 1.024 2.999h-6.014c-1.649-.006-2.99-1.348-2.99-2.999v-7.997c0-6.617 5.383-12 12-12h2.806c-4.08 2.449-6.825 6.904-6.826 11.999zm-9.979 0v7.998c0 1.13.391 2.161 1.024 2.999h-6.04c-1.649-.006-2.99-1.348-2.99-2.999v-7.997c0-6.617 5.383-12 12-12h2.832c-4.08 2.449-6.825 6.904-6.826 11.999zm-18.012 7.998v-7.997c0-6.617 5.383-12 12-12h2.832c-4.08 2.449-6.825 6.903-6.826 11.999v7.998c0 1.13.391 2.161 1.024 2.999h-6.04c-1.649-.006-2.99-1.347-2.99-2.999zm55.998 7.018c-.002 0-.003-.001-.005-.001h-57.956c-.014-.001-.025-.008-.039-.008-.554 0-1.005-.451-1.005-1.005s.451-1.005 1.005-1.005h.002.003 1.991c.002 0 .003.001.005.001h18.006 17.991 18.006c.002 0 .003-.001.005-.001h1.986c.557 0 1.01.453 1.01 1.01 0 .555-.45 1.006-1.005 1.009z"/></svg>